<?xml version="1.0" standalone="no"?>
<!DOCTYPE svg PUBLIC "-//W3C//DTD SVG 20010904//EN"
 "http://www.w3.org/TR/2001/REC-SVG-20010904/DTD/svg10.dtd">
<svg version="1.0" xmlns="http://www.w3.org/2000/svg"
 width="260.000000pt" height="260.000000pt" viewBox="0 0 260.000000 260.000000"
 preserveAspectRatio="xMidYMid meet">
<metadata>
Created by potrace 1.11, written by Peter Selinger 2001-2013
</metadata>
<g transform="translate(0.000000,260.000000) scale(0.100000,-0.100000)"
fill="#000000" stroke="none">
<path d="M1105 2484 c-514 -89 -911 -491 -990 -1002 -14 -85 -13 -312 0 -377
34 -168 72 -270 146 -399 61 -107 92 -147 183 -243 156 -163 377 -286 611
-338 86 -20 311 -26 420 -12 179 22 397 116 560 239 125 96 270 275 345 427
37 73 86 220 95 281 4 24 9 48 12 53 9 15 12 282 3 342 -59 405 -297 737 -659
919 -76 39 -223 91 -281 100 -19 3 -46 8 -60 12 -53 13 -306 11 -385 -2z"/>
</g>
</svg>
