<?xml version="1.0" encoding="UTF-8"?>
<svg width="50px" height="50px" viewBox="0 0 50 50" version="1.1" xmlns="http://www.w3.org/2000/svg" xmlns:xlink="http://www.w3.org/1999/xlink" style="background: #FFFFFF;">
    <!-- Generator: Sketch 41.2 (35397) - http://www.bohemiancoding.com/sketch -->
    <title>Artboard Copy 3</title>
    <desc>Created with Sketch.</desc>
    <defs></defs>
    <g id="Page-1" stroke="none" stroke-width="1" fill="none" fill-rule="evenodd">
        <g id="Artboard-Copy-3" fill="#1ED760">
            <g id="Spotify_Logo_RGB_Green">
                <path d="M39.6735554,22.1657738 C31.6533958,17.3946429 18.4243217,16.9559524 10.7681205,19.283631 C9.53868359,19.6571429 8.23853472,18.9619048 7.86596007,17.7303571 C7.49338542,16.4982143 8.18683776,15.1967262 9.41716602,14.8223214 C18.2059466,12.15 32.8159832,12.6660714 42.0489417,18.15625 C43.1550784,18.8139881 43.5178484,20.2446429 42.8621289,21.3505952 C42.2061123,22.4583333 40.776721,22.8235119 39.6735554,22.1657738 Z M39.4109111,29.2324405 C38.8484838,30.1470238 37.6547,30.433631 36.7428725,29.8723214 C30.0564351,25.7550595 19.8605464,24.5625 11.95002,26.9678571 C10.9241027,27.2782738 9.84054631,26.6988095 9.5291761,25.6732143 C9.21988566,24.6455357 9.79865394,23.5622024 10.8224915,23.2497024 C19.859358,20.5029762 31.0930483,21.8333333 38.772721,26.5610119 C39.6845485,27.1235119 39.9715557,28.3199405 39.4109111,29.2324405 Z M36.3664354,36.0190476 C35.9195835,36.7532738 34.9646753,36.983631 34.2343815,36.5360119 C28.3914364,32.9589286 21.0373951,32.1508929 12.3766685,34.1327381 C11.5420894,34.3244048 10.7104814,33.8002976 10.5200345,32.9645833 C10.3286963,32.1285714 10.8498255,31.2955357 11.6861872,31.1047619 C21.1639635,28.9342262 29.2940534,29.8684524 35.8521398,33.8827381 C36.583325,34.3300595 36.8135844,35.2869048 36.3664354,36.0190476 Z M24.9559653,0.0705357143 C11.2146753,0.0705357143 0.0748714613,11.228869 0.0748714613,24.99375 C0.0748714613,38.7595238 11.2146753,49.9175595 24.9559653,49.9175595 C38.6975524,49.9175595 49.8367621,38.7595238 49.8367621,24.99375 C49.8367621,11.228869 38.6975524,0.0705357143 24.9559653,0.0705357143 L24.9559653,0.0705357143 Z" id="Fill-1"></path>
            </g>
        </g>
    </g>
</svg>